<svg xmlns="http://www.w3.org/2000/svg" width="23.269" height="13.716" viewBox="0 0 23.269 13.716">
  <path id="behance" d="M966.509,8492.109a5.044,5.044,0,0,1,5.293-5.158c3.529,0,5.235,3.052,5.035,6.057h-7.481c.081,1.7.962,2.22,2.546,2.22,1.145,0,2.066-.192,2.248-.8h2.508c-.8,2.308-2.508,2.823-4.856,2.823A4.914,4.914,0,0,1,966.509,8492.109Zm2.847-.548h4.634c-.262-1.36-.885-2.589-2.267-2.589C969.917,8488.973,969.395,8490.807,969.356,8491.562Zm-15.772,5.554v-13.58h6.741c2.727,0,4.572.917,4.572,3.431a2.96,2.96,0,0,1-1.945,2.815,3.322,3.322,0,0,1,2.627,3.421c0,2.737-2.467,3.913-5.054,3.913Zm2.879-2.308h3.64c1.245,0,2.327-.378,2.327-1.776,0-1.38-.921-1.928-2.265-1.928h-3.7Zm0-5.726h3.461c1.1,0,1.926-.472,1.926-1.606,0-1.286-1.045-1.55-2.167-1.55h-3.22Zm11.548-2.852v-1.369h7.17v1.369Z" transform="translate(-953.584 -8483.535)" fill="#00bec5"/>
</svg>
