<svg xmlns="http://www.w3.org/2000/svg" width="19.404" height="19.98" viewBox="0 0 19.404 19.98">
  <path id="google_plus" data-name="google plus" d="M914.758,8497.226c0-4.318,6.247-4.385,6.755-4.385s.591-.134.169-.573a1.54,1.54,0,0,1-.309-2.215c-1.41.053-5.292-.687-5.292-4.14s3.742-4.927,5.091-4.927H927.9a7.482,7.482,0,0,1-1.011.63,4.12,4.12,0,0,1-2.027.191,4.009,4.009,0,0,1,1.829,3.23c0,2.138-1.069,3.068-2.42,4.219s-.563,1.835,1.549,3.285,2.7,4.658-.03,6.986a8.239,8.239,0,0,1-5.055,1.438C917.752,8500.966,914.758,8499.817,914.758,8497.226Zm2.39-.8c0,2,1.491,3.342,4.276,3.342s4.423-.9,4.423-2.766-1.841-2.795-2.872-3.561C919.174,8493.445,917.147,8494.431,917.147,8496.43Zm3.745-14.786c-3.941,0-2.422,7.558.928,7.558,4.415,0,2.173-7.56-.862-7.559Zm9.42,5.586v-2.462h-2.575v-1.274h2.575v-2.458h1.316v2.458h2.533v1.274h-2.533v2.462Z" transform="translate(-914.758 -8480.986)" fill="#00bec5"/>
</svg>
