<svg xmlns="http://www.w3.org/2000/svg" width="20.683" height="19.999" viewBox="0 0 20.683 19.999">
  <defs>
    <style>
      .cls-1 {
        fill: #00bec5;
      }
    </style>
  </defs>
  <path id="instagram" class="cls-1" d="M1054.931,8481h-16.546a2.04,2.04,0,0,0-2.068,2v16a2.041,2.041,0,0,0,2.068,2h16.546a2.041,2.041,0,0,0,2.068-2v-16A2.04,2.04,0,0,0,1054.931,8481Zm-8.273,6a4,4,0,1,1-4.137,4A4.082,4.082,0,0,1,1046.658,8487Zm-7.756,12a.482.482,0,0,1-.517-.5V8490h2.172a3.3,3.3,0,0,0-.1,1,6.208,6.208,0,0,0,12.41,0,3.3,3.3,0,0,0-.1-1h2.172v8.5a.481.481,0,0,1-.517.5Zm16.029-13.5a.48.48,0,0,1-.517.5h-2.068a.48.48,0,0,1-.517-.5v-2a.48.48,0,0,1,.517-.5h2.068a.48.48,0,0,1,.517.5Z" transform="translate(-1036.316 -8480.998)"/>
</svg>
