<svg xmlns="http://www.w3.org/2000/svg" width="20.683" height="19.961" viewBox="0 0 20.683 19.961">
  <path id="pinterest" d="M1006.57,8481.021a10.166,10.166,0,0,0-10.342,9.98,9.982,9.982,0,0,0,6.248,9.168,8.5,8.5,0,0,1,.182-2.277c.2-.812,1.336-5.457,1.336-5.457a3.76,3.76,0,0,1-.331-1.587c0-1.482.891-2.592,2-2.592a1.361,1.361,0,0,1,1.4,1.5,20.936,20.936,0,0,1-.917,3.555,1.568,1.568,0,0,0,1.639,1.93c1.965,0,3.29-2.437,3.29-5.327,0-2.2-1.53-3.838-4.317-3.838a4.834,4.834,0,0,0-5.111,4.8,2.83,2.83,0,0,0,.685,1.966.475.475,0,0,1,.149.559c-.05.184-.163.628-.21.8a.36.36,0,0,1-.52.25c-1.449-.571-2.126-2.1-2.126-3.825,0-2.846,2.487-6.259,7.418-6.259,3.964,0,6.571,2.768,6.571,5.738,0,3.931-2.264,6.864-5.6,6.864a3.007,3.007,0,0,1-2.535-1.246s-.6,2.3-.73,2.751a8.289,8.289,0,0,1-1.027,2.121,10.761,10.761,0,0,0,2.849.383,9.987,9.987,0,1,0,0-19.961Z" transform="translate(-996.228 -8481.021)" fill="#00bec5"/>
</svg>
