<svg xmlns="http://www.w3.org/2000/svg" width="20.683" height="16.219" viewBox="0 0 20.683 16.219">
  <path id="twitter" d="M894.848,8484.234a7.755,7.755,0,0,1-2.368.646,4.4,4.4,0,0,0,1.779-2.236,7.081,7.081,0,0,1-2.662.91l0,0a4.331,4.331,0,0,0-3.086-1.273,4.194,4.194,0,0,0-4.267,4.118,3.931,3.931,0,0,0,.11.918h0a12.481,12.481,0,0,1-9.039-4.271,4.036,4.036,0,0,0,1.294,5.439,2.81,2.81,0,0,1-1.863-.464,3.986,3.986,0,0,0,3.291,4.022,3.456,3.456,0,0,1-1.776.13c.136,1.213,1.894,2.8,3.814,2.8a7.151,7.151,0,0,1-5.909,1.708,13.152,13.152,0,0,0,6.674,1.821,11.631,11.631,0,0,0,11.942-12.026c0-.007,0-.016,0-.022s0-.037,0-.052,0-.041,0-.062A7.216,7.216,0,0,0,894.848,8484.234Z" transform="translate(-874.165 -8482.283)" fill="#00bec5"/>
</svg>
